<svg xmlns="http://www.w3.org/2000/svg" width="425.126" height="425.125" viewBox="0 0 425.126 425.125"><path d="M122.54 301.304c28.648 28.655 61.832 56.046 74.943 42.929 18.782-18.775 30.355-35.129 71.747-1.863 41.392 33.279 9.602 55.454-8.589 73.65-20.991 20.992-99.239 1.102-176.583-76.234C6.722 262.442-13.175 184.195 7.83 163.196c18.197-18.197 40.372-49.98 73.63-8.582 33.272 41.385 16.925 52.965-1.856 71.74-13.104 13.118 14.28 46.295 42.936 74.95zm302.586-196.703c0 57.066-58.452 103.326-130.553 103.326-7.208 0-14.232-.585-21.121-1.469-19.618 20.081-49.585 29.838-83.626 32.381 13.94-13.94 23.915-34.17 27.043-51.34-32.015-18.829-52.856-48.899-52.856-82.892 0-57.065 58.453-103.326 130.554-103.326s130.559 46.254 130.559 103.32zm-212.154 0c0 11.268 9.133 20.4 20.401 20.4s20.4-9.132 20.4-20.4-9.133-20.4-20.4-20.4-20.401 9.132-20.401 20.4zm102.001 0c0-11.268-9.132-20.4-20.399-20.4s-20.4 9.132-20.4 20.4 9.133 20.4 20.4 20.4 20.399-9.133 20.399-20.4zm61.2 0c0-11.268-9.132-20.4-20.399-20.4s-20.4 9.132-20.4 20.4 9.133 20.4 20.4 20.4 20.399-9.133 20.399-20.4z"/></svg>