<svg id="Layer_1" xmlns="http://www.w3.org/2000/svg" viewBox="0 0 229.7 148"><style>.st0{fill:none;stroke:#000;stroke-width:.75;stroke-miterlimit:10}.st1{font-family:&amp;apos;OpenSans&amp;apos;}.st2{font-size:12px}.st3{fill:#fff;stroke:#999;stroke-miterlimit:10}.st4,.st5,.st6{stroke:gray;stroke-miterlimit:10}.st4{stroke-width:.5;fill:#fff}.st5{fill:url(#SVGID_1_)}.st6{fill:#fff;stroke-width:.25}.st7{opacity:.42}.st8{fill:none;stroke:#9e005d;stroke-width:2;stroke-miterlimit:10}.st10{stroke:gray}.st10,.st11,.st9{stroke-miterlimit:10}.st9{fill:url(#SVGID_2_);stroke:gray}.st10{fill:url(#SVGID_3_)}.st11{fill:none;stroke:#000}</style><path class="st0" d="M209.7 66.1V14.8m0 73.8v58.9"/><text transform="translate(202.266 81.313)" class="st1 st2">1530</text><path d="M209.6 13.9l-3.3 3.3s-.1.1-.1.2 0 .1.1.2l.4.4s.1.1.2.1.1 0 .2-.1l2.8-2.8 2.8 2.8s.1.1.2.1.1 0 .2-.1l.4-.4s.1-.1.1-.2 0-.1-.1-.2l-3.3-3.3s-.1-.1-.2-.1-.4.1-.4.1zm.3 133.3l3.3-3.3s.1-.1.1-.2 0-.1-.1-.2l-.4-.4s-.1-.1-.2-.1-.1 0-.2.1l-2.8 2.8-2.8-2.8s-.1-.1-.2-.1-.1 0-.2.1l-.4.4s-.1.1-.1.2 0 .1.1.2l3.3 3.3s.1.1.2.1.3 0 .4-.1z"/><path class="st3" d="M.5 13.5h200v134H.5z"/><path class="st4" d="M66 18.9h69.8v123.4H66z"/><linearGradient id="SVGID_1_" gradientUnits="userSpaceOnUse" x1="100.921" y1="137.184" x2="100.921" y2="24.242"><stop offset="0" stop-color="#bbf1f9"/><stop offset="1" stop-color="#90d8f0"/></linearGradient><path class="st5" d="M71.6 24.2h58.6v112.9H71.6z"/><path class="st6" d="M135.8 18.9h1.4v10.4h-1.4zm0 113.1h1.4v10.4h-1.4zM69 85.8h-.4c-.6 0-1-.5-1-1v-5.2c0-.6.5-1 1-1h.4c.6 0 1 .5 1 1v5.2c0 .5-.5 1-1 1z"/><path class="st6" d="M68.8 93.8c-.4 0-.7-.3-.7-.7v-12c0-.4.3-.7.7-.7.4 0 .7.3.7.7v12c0 .4-.4.7-.7.7z"/><g class="st7"><path class="st8" d="M135.1 18.9L66.9 80.6m68.9 61.3L66.4 80.2m69 62L101.1 18.9M66.7 142.2l34.4-123.3"/></g><linearGradient id="SVGID_2_" gradientUnits="userSpaceOnUse" x1="167.228" y1="142.309" x2="167.228" y2="18.897"><stop offset="0" stop-color="#bbf1f9"/><stop offset="1" stop-color="#90d8f0"/></linearGradient><path class="st9" d="M140.3 18.9h53.8v123.4h-53.8z"/><linearGradient id="SVGID_3_" gradientUnits="userSpaceOnUse" x1="34.307" y1="142.309" x2="34.307" y2="18.897"><stop offset="0" stop-color="#bbf1f9"/><stop offset="1" stop-color="#90d8f0"/></linearGradient><path class="st10" d="M6.8 18.9h55.1v123.4H6.8z"/><path class="st11" d="M.8 13.5h214.4m-14.7 134V.4M.5 147.5V0m200 147.5H215"/><path class="st0" d="M120.8 7.3h79.5M78.6 7.2H.9"/><text transform="translate(85.74 10.688)" class="st1 st2">2000</text><path d="M200.3 7.1L197 3.8s-.1-.1-.2-.1-.1 0-.2.1l-.4.4s-.1.1-.1.2 0 .1.1.2l2.8 2.8-2.8 2.8s-.1.1-.1.2 0 .1.1.2l.4.4s.1.1.2.1.1 0 .2-.1l3.3-3.3s.1-.1.1-.2-.1-.4-.1-.4zM.7 7.4L4 10.7s.1.1.2.1.1 0 .2-.1l.4-.4s.1-.1.1-.2 0-.1-.1-.2L2 7.2l2.8-2.8s.1-.1.1-.2 0-.1-.1-.2l-.4-.3s-.1-.1-.2-.1-.1 0-.2.1L.7 7.1s-.1.1-.1.2c.1 0 .1 0 .1.1z"/></svg>