<svg id="Layer_1" xmlns="http://www.w3.org/2000/svg" viewBox="0 0 267.5 247.4"><style>.st0,.st1{fill:#fff;stroke:gray;stroke-miterlimit:10}.st1{stroke:#999}.st2,.st3,.st4{stroke:gray}.st2,.st3,.st4,.st5,.st6{stroke-miterlimit:10}.st2{stroke-width:.5;fill:#fff}.st3{fill:url(#SVGID_1_)}.st4{fill:url(#SVGID_2_)}.st5,.st6{fill:none;stroke:#000}.st6{stroke-width:.75}.st7{font-family:&amp;apos;OpenSans&amp;apos;}.st8{font-size:12px}.st9{fill:#fff;stroke:gray;stroke-width:.25;stroke-miterlimit:10}.st10{opacity:.42}.st11{fill:none;stroke:#9e005d;stroke-width:2;stroke-miterlimit:10}</style><path class="st0" d="M35.2 17.2h68v214h-68z"/><path class="st1" d="M35.2 17.2h68v214h-68z"/><path class="st1" d="M103.2 17.2h135v150h-135z"/><path class="st2" d="M40.2 22.2h58v202.9h-58z"/><linearGradient id="SVGID_1_" gradientUnits="userSpaceOnUse" x1="170.373" y1="161.547" x2="170.373" y2="22.157"><stop offset="0" stop-color="#bbf1f9"/><stop offset="1" stop-color="#90d8f0"/></linearGradient><path class="st3" d="M108.2 22.2h124.4v139.4H108.2z"/><path class="st1" d="M45.2 166.9h48V220h-48z"/><linearGradient id="SVGID_2_" gradientUnits="userSpaceOnUse" x1="69.188" y1="161.547" x2="69.188" y2="26.409"><stop offset="0" stop-color="#bbf1f9"/><stop offset="1" stop-color="#90d8f0"/></linearGradient><path class="st4" d="M45.2 26.4h48v135.1h-48z"/><path class="st5" d="M17.6 17.2h235m-149.7 150h150.5m-235.8 64h100.2m-82.6 16.2V.2m203 171.7V.3m-135 247.1V.2"/><path class="st6" d="M52.4 6.9H35.2m154.9 0l48.1.1"/><text transform="translate(58.647 10.283)" class="st7 st8">680</text><path class="st6" d="M85 6.8h18.2m49.7 0h-49.3"/><text transform="translate(156.647 10.283)" class="st7 st8">1350</text><path class="st6" d="M247.6 79.5V17.2m0 78.6l.8 71.4"/><text transform="translate(240.097 91.95)" class="st7 st8">1530</text><path class="st6" d="M23.1 101.1V17.2m.1 102.9v111.1"/><text transform="translate(0 113.95)" class="st7 st8">2100</text><path class="st9" d="M98.2 22.3h1.4v10h-1.4zm0 192.8h1.4v10h-1.4zm-55.3-92.2h-.5c-.6 0-1-.5-1-1V117c0-.6.5-1 1-1h.5c.6 0 1 .5 1 1v4.9c0 .5-.4 1-1 1z"/><path class="st9" d="M42.7 130.5c-.4 0-.7-.3-.7-.7v-11.4c0-.4.3-.7.7-.7.4 0 .7.3.7.7v11.4c0 .4-.3.7-.7.7z"/><path d="M237.9 6.8l-3.3-3.3s-.1-.1-.2-.1-.1 0-.2.1l-.4.4s-.1.1-.1.2 0 .1.1.2l2.8 2.8-2.8 2.8s-.1.1-.1.2 0 .1.1.2l.4.4s.1.1.2.1.1 0 .2-.1l3.3-3.3s.1-.1.1-.2 0-.3-.1-.4zM103.4 7l3.3 3.3s.1.1.2.1.1 0 .2-.1l.4-.4s.1-.1.1-.2 0-.1-.1-.2l-2.8-2.8 2.8-2.8s.1-.1.1-.2 0-.1-.1-.2l-.4-.4s-.1-.1-.2-.1-.1 0-.2.1l-3.3 3.3s-.1.1-.1.2c.1.3.1.4.1.4z"/><g class="st10"><path class="st11" d="M40.8 22.3l55.9 101M40.2 224.6l56.4-102.5m-56 103.1L69.4 22.3m28.8 202.9L69.4 22.3"/></g><path d="M247.4 17.5l-3.3 3.3s-.1.1-.1.2 0 .1.1.2l.4.4s.1.1.2.1.1 0 .2-.1l2.8-2.8 2.8 2.8s.1.1.2.1.1 0 .2-.1l.4-.4s.1-.1.1-.2 0-.1-.1-.2l-3.3-3.3s-.1-.1-.2-.1-.4 0-.4.1zm1.2 149.4l3.3-3.3s.1-.1.1-.2 0-.1-.1-.2l-.4-.4s-.1-.1-.2-.1-.1 0-.2.1l-2.8 2.8-2.8-2.8s-.1-.1-.2-.1-.1 0-.2.1l-.4.4s-.1.1-.1.2 0 .1.1.2l3.3 3.3s.1.1.2.1.3-.1.4-.1zM35.5 7l3.3 3.3s.1.1.2.1.1 0 .2-.1l.4-.4s.1-.1.1-.2 0-.1-.1-.2l-2.8-2.8L39.5 4s.1-.1.1-.2 0-.1-.1-.2l-.4-.4s-.1-.1-.2-.1-.1 0-.2.1l-3.3 3.3s-.1.1-.1.2.1.3.2.3zm67.4-.3l-3.3-3.3s-.1-.1-.2-.1-.1 0-.2.1l-.4.4s-.1.1-.1.2 0 .1.1.2l2.8 2.8-2.8 2.8s-.1.1-.1.2 0 .1.1.2l.4.4s.1.1.2.1.1 0 .2-.1l3.3-3.3s.1-.1.1-.2c0-.3 0-.4-.1-.4zM23 17.5l-3.3 3.3s-.1.1-.1.2 0 .1.1.2l.4.4s.1.1.2.1.1 0 .2-.1l2.8-2.8 2.8 2.8s.1.1.2.1.1 0 .2-.1l.4-.4s.1-.1.1-.2 0-.1-.1-.2l-3.3-3.3s-.1-.1-.2-.1c-.3.1-.4.1-.4.1zm.3 213.3l3.3-3.3s.1-.1.1-.2 0-.1-.1-.2l-.4-.4s-.1-.1-.2-.1-.1 0-.2.1l-2.8 2.8-2.8-2.8s-.1-.1-.2-.1-.1 0-.2.1l-.4.4s-.1.1-.1.2 0 .1.1.2l3.3 3.3s.1.1.2.1.4 0 .4-.1z"/></svg>