<?xml version="1.0" encoding="utf-8"?><svg xmlns="http://www.w3.org/2000/svg" xmlns:xlink="http://www.w3.org/1999/xlink"><symbol viewBox="0 0 18.7 35.4" id="arrow"><path d="M18.7 17L1.5 0 .1 1.4l16.2 16.3L0 34l1.6 1.4 17.1-17z"/></symbol><symbol viewBox="0 0 425.126 425.125" id="call"><path d="M122.54 301.304c28.648 28.655 61.832 56.046 74.943 42.929 18.782-18.775 30.355-35.129 71.747-1.863 41.392 33.279 9.602 55.454-8.589 73.65-20.991 20.992-99.239 1.102-176.583-76.234C6.722 262.442-13.175 184.195 7.83 163.196c18.197-18.197 40.372-49.98 73.63-8.582 33.272 41.385 16.925 52.965-1.856 71.74-13.104 13.118 14.28 46.295 42.936 74.95zm302.586-196.703c0 57.066-58.452 103.326-130.553 103.326-7.208 0-14.232-.585-21.121-1.469-19.618 20.081-49.585 29.838-83.626 32.381 13.94-13.94 23.915-34.17 27.043-51.34-32.015-18.829-52.856-48.899-52.856-82.892 0-57.065 58.453-103.326 130.554-103.326s130.559 46.254 130.559 103.32zm-212.154 0c0 11.268 9.133 20.4 20.401 20.4s20.4-9.132 20.4-20.4-9.133-20.4-20.4-20.4-20.401 9.132-20.401 20.4zm102.001 0c0-11.268-9.132-20.4-20.399-20.4s-20.4 9.132-20.4 20.4 9.133 20.4 20.4 20.4 20.399-9.133 20.399-20.4zm61.2 0c0-11.268-9.132-20.4-20.399-20.4s-20.4 9.132-20.4 20.4 9.133 20.4 20.4 20.4 20.399-9.133 20.399-20.4z"/></symbol><symbol viewBox="0 0 440.9 440.9" id="home"><path d="M405.462 261.499h-26.899v112.602l-75.899-75.899c20.8-36.101 15.898-83.2-14.7-113.8-18.399-18.4-42.8-27.5-66.7-27.5-23.9 0-48.3 9.2-66.7 27.5-37.3 36.701-37.3 96.701 0 134 30.6 30.601 77.7 35.5 113.8 14.701l88.698 88.698c-5.5 2.4-11 4.301-17.698 4.301h-236.8c-22 0-39.8-17.701-39.8-39.801v-124.2h-26.3c-30.6 0-50.8-36.701-23.9-64.301l159.1-162.2c13.5-14.1 31.2-20.8 49-20.8 17.7 0 35.5 6.7 49 20.8l36.1 36.7V40.5c0-14.1 11.602-25.1 25.7-25.1h21.4c14.1 0 25.1 11 25.1 25.1V147l50.2 51.4c26.898 25.8 7.298 63.099-22.702 63.099zM187.663 218.7c-17.7 17.7-17.7 46.5 0 64.299 17.7 17.801 46.5 17.701 64.3 0 17.7-17.699 17.7-47.101 0-64.299-9.2-9.2-20.8-13.5-32.4-13.5-11.101 0-22.8 4.3-31.9 13.5z"/></symbol><symbol viewBox="0 0 512 512" id="message"><path d="M501.801 139.942H171.312c-5.633 0-10.199 4.566-10.199 10.199v19.235h-97.21c-5.633 0-10.199 4.566-10.199 10.199s4.566 10.199 10.199 10.199h97.21v132.452h-58.101c-5.633 0-10.199 4.566-10.199 10.199s4.566 10.199 10.199 10.199h58.101v19.235c0 5.633 4.566 10.199 10.199 10.199h330.489c5.633 0 10.199-4.566 10.199-10.199V150.141c0-5.633-4.566-10.199-10.199-10.199zm-25.16 20.398l-140.07 114.985L197.14 160.34h279.501zm14.961 191.321h-310.09v-177.77l148.556 122.51a10.183 10.183 0 0 0 6.489 2.331c2.295 0 4.591-.772 6.471-2.316L491.602 174.45v177.211z"/><path d="M119.673 244.768H10.199C4.566 244.768 0 249.334 0 254.967s4.566 10.199 10.199 10.199h109.474c5.633 0 10.199-4.566 10.199-10.199.001-5.633-4.566-10.199-10.199-10.199zm-50.318 77.459h-5.451c-5.633 0-10.199 4.566-10.199 10.199s4.566 10.199 10.199 10.199h5.451c5.633 0 10.199-4.566 10.199-10.199s-4.566-10.199-10.199-10.199z"/></symbol><symbol viewBox="0 0 512 512" id="temp-01"><path d="M400.173 242.777l55.271-53.876c7.714-7.52 10.439-18.556 7.109-28.803-3.329-10.246-12.019-17.573-22.682-19.123l-119.18-17.318-53.297-107.994C262.626 6.002 252.971 0 242.198 0c-10.775 0-20.429 6.002-25.197 15.662l-53.298 107.994-119.18 17.318c-10.661 1.55-19.353 8.878-22.682 19.124-3.33 10.246-.605 21.282 7.109 28.802l86.239 84.062-20.357 118.699c-1.82 10.618 2.462 21.149 11.178 27.481 4.926 3.578 10.688 5.396 16.488 5.396 4.465 0 8.954-1.077 13.101-3.258l78.56-41.301C217.697 453.376 278.517 512 352.775 512c76.523 0 138.78-62.257 138.78-138.781 0-59.886-38.128-111.031-91.382-130.442zM215.075 355.89l-89.199 46.893c-3.577 1.88-6.494.241-7.582-.549-1.089-.791-3.547-3.061-2.864-7.042l21.287-124.112a10.45 10.45 0 0 0-3.005-9.248l-90.173-87.897c-2.893-2.819-2.238-6.1-1.821-7.38.415-1.28 1.814-4.32 5.812-4.901l124.616-18.108a10.447 10.447 0 0 0 7.868-5.716l55.728-112.92c1.787-3.622 5.111-4.012 6.456-4.012 1.345 0 4.669.391 6.455 4.013l55.73 112.921a10.452 10.452 0 0 0 7.867 5.716l124.617 18.108c3.998.581 5.396 3.621 5.813 4.9.415 1.28 1.07 4.561-1.822 7.38l-64.186 62.566a139.128 139.128 0 0 0-23.896-2.066c-1.333 0-2.662.023-3.987.061l42.446-41.374a10.451 10.451 0 0 0-5.791-17.823l-92.505-13.442-41.369-83.824a10.451 10.451 0 0 0-18.742 0l-41.37 83.824-92.506 13.443a10.448 10.448 0 1 0-5.79 17.823l66.938 65.247-15.802 92.132a10.447 10.447 0 0 0 10.301 12.216c1.663 0 3.332-.396 4.861-1.2l61.74-32.459a137.618 137.618 0 0 0-6.125 26.83zM178.62 247.24l-55.711-54.303 76.991-11.188a10.447 10.447 0 0 0 7.867-5.716l34.43-69.764 34.429 69.765a10.452 10.452 0 0 0 7.868 5.716l76.989 11.188-48.569 47.342c-31.633 9.502-58.547 30.006-76.279 57.053l-68.164 35.836 13.152-76.679a10.447 10.447 0 0 0-3.003-9.25zm174.155 243.862c-65.001 0-117.883-52.882-117.883-117.883s52.882-117.883 117.883-117.883 117.882 52.882 117.882 117.883-52.881 117.883-117.882 117.883z"/><path d="M436.755 326.719c-4.079-4.079-10.696-4.08-14.778 0l-82.648 82.648-41.907-41.908c-4.081-4.079-10.696-4.079-14.778 0-4.08 4.08-4.08 10.697 0 14.778l49.296 49.296a10.415 10.415 0 0 0 7.388 3.06c2.674 0 5.348-1.02 7.388-3.06l90.037-90.036c4.082-4.082 4.082-10.698.002-14.778z"/></symbol><symbol viewBox="0 0 503.607 503.607" id="temp-02"><path d="M478.426 417.993c-50.095-26.565-88.52-41.461-122.727-47.172l3.54-4.867c1.679-1.679 2.518-4.197 1.679-6.715l-7.866-31.463c20.804-29.41 33.046-66.178 33.046-101.153v-33.574h25.18c5.036 0 8.393-3.357 8.393-8.393s-3.357-8.393-8.393-8.393h-8.393v-8.393c0-66.308-43.646-122.544-109.115-141.01v-1.68C293.77 11.75 282.859 0 268.59 0h-33.574c-13.43 0-25.18 10.911-25.18 25.18v1.679c-65.469 18.466-109.115 74.702-109.115 141.01v8.393h-8.393c-5.036 0-8.393 3.357-8.393 8.393s3.357 8.393 8.393 8.393h25.18v33.574c0 34.975 12.242 71.743 33.046 101.154l-7.866 31.463c0 1.679 0 5.036 1.679 6.715l3.54 4.867c-34.206 5.712-72.632 20.607-122.727 47.172C9.233 425.548 0 441.495 0 459.121v36.092c0 5.036 3.357 8.393 8.393 8.393h486.82c5.036 0 8.393-3.357 8.393-8.393v-36.092c.001-16.787-10.072-32.734-25.18-41.128zm-231.656-7.769l5.081-11.432 12.545 27.6 8.205 18.46H231.66l15.11-34.628zm-21.49 51.415h52.983l4.796 25.18h-62.815l5.036-25.18zm114.654-117.508l3.357 15.108-8.574 11.773a7.48 7.48 0 0 0-1.498 1.656l-34.912 48.34-11.078 15.211-22.628-50.913c27.048-3.299 51.193-16.877 70.694-36.39.216-.214.433-.426.648-.642l.156-.159a154.457 154.457 0 0 0 3.835-3.984zM328.999 61.389c.932.62 1.856 1.25 2.77 1.892 10.699 7.973 20.575 17.313 28.31 27.368l-38.61 7.554 7.53-36.814zM182.138 98.203l-38.61-7.554c7.735-10.056 17.612-19.396 28.311-27.369.913-.641 1.837-1.271 2.769-1.891l7.53 36.814zm-64.63 69.666c0-22.335 5.623-43.406 15.8-61.82l58.063 11.46h1.679c2.518 0 4.197-.839 6.715-1.679 2.518-1.679 3.357-5.036 2.518-7.554l-11.523-56.08a139.223 139.223 0 0 1 19.077-7.49v22.442c0 5.036 3.357 8.393 8.393 8.393s8.393-3.357 8.393-8.393V25.18c0-4.197 3.357-8.393 8.393-8.393h33.574c4.197 0 8.393 3.357 8.393 8.393v41.967c0 5.036 3.357 8.393 8.393 8.393 5.036 0 8.393-3.357 8.393-8.393V44.706a139.091 139.091 0 0 1 19.685 7.779l-11.291 54.952c0 2.518.839 5.875 2.518 7.554s3.357 2.518 5.875 2.518h1.679l57.687-12.145c10.416 18.576 16.175 39.894 16.175 62.505v8.393H117.509v-8.393zm16.787 25.18h235.016v33.574c0 36.599-12.555 69.122-31.405 93.843l-.49.163-2.518 2.518c-4.223 5.631-8.68 10.765-13.337 15.394-19.763 18.412-43.336 29.564-66.05 30.669-1.143-.491-2.425-.738-3.708-.738-1.29 0-2.453.253-3.496.749-13.904-.638-28.134-5.045-41.623-12.584-13.665-7.851-26.52-19.169-37.977-33.49l-2.518-2.518-.49-.163c-18.85-24.722-31.405-57.245-31.405-93.843v-33.574zm104.71 192.259l-22.628 50.913-11.078-15.211-34.912-48.34a15.02 15.02 0 0 0-.869-.793l-9.203-12.637 3.357-15.108a153.17 153.17 0 0 0 3.457 3.594c19.704 20.151 44.279 34.216 71.876 37.582zM16.787 459.121c0-10.911 5.875-20.984 15.948-26.02 53.501-28.423 92.015-42.688 126.323-46.949l50.088 68.87-6.359 31.796h-186v-27.697zM486.82 486.82H300.821l-6.359-31.796 50.63-69.616c34.188 5.159 73.391 19.413 125.78 46.855 10.072 5.875 15.948 15.948 15.948 26.859v27.698z"/></symbol><symbol viewBox="0 0 59.415 59.415" id="temp-03"><path d="M51.594 39.707l-5.596 8.04-3.949-3.241a1 1 0 0 0-1.407.138.998.998 0 0 0 .139 1.407l4.786 3.929a.998.998 0 0 0 1.455-.201l6.214-8.929a1 1 0 0 0-1.642-1.143z"/><path d="M50.09 32.745l6.325-6.308V12.296L45.3 1.207H31.295l-.759.757L6 26.42l.008.008L0 32.42l25.147 25.201 8.796-8.773c1.58 5.4 6.568 9.359 12.471 9.359 7.168 0 13-5.832 13-13 .001-5.891-3.941-10.872-9.324-12.462zM44.473 3.207l9.942 9.919v12.48l-6.69 6.667c-.094-.01-.191-.007-.286-.015l-.222-.019-.174-.015a11.254 11.254 0 0 0-.628-.019c-7.168 0-13 5.832-13 13 0 .199.006.401.018.611.004.072.013.15.018.224l.016.2c.006.076.004.155.012.231l-2.328 2.321-22.314-22.36L32.122 3.207h12.351zM2.829 32.424l4.592-4.58 22.321 22.369-4.592 4.58L2.829 32.424zm43.586 23.783c-5.549 0-10.139-4.134-10.883-9.481l-.003-.02c-.022-.161-.033-.3-.049-.448-.008-.073-.018-.152-.024-.222-.021-.275-.042-.549-.042-.829 0-6.065 4.935-11 11-11 .281 0 .557.021.833.042l.139.015c.18.018.356.034.556.062l.025.003c5.331.759 9.447 5.341 9.447 10.877.001 6.067-4.934 11.001-10.999 11.001z"/><path d="M42.43 18.077c2.17 0 3.935-1.765 3.935-3.935s-1.765-3.936-3.935-3.936-3.936 1.766-3.936 3.936 1.766 3.935 3.936 3.935zm0-5.87c1.067 0 1.935.868 1.935 1.936a1.938 1.938 0 0 1-1.935 1.935 1.938 1.938 0 0 1-1.936-1.935c0-1.068.868-1.936 1.936-1.936z"/></symbol></svg>