<?xml version="1.0" encoding="iso-8859-1"?>
<!-- Generator: Adobe Illustrator 19.0.0, SVG Export Plug-In . SVG Version: 6.00 Build 0)  -->
<svg version="1.1" id="Layer_1" xmlns="http://www.w3.org/2000/svg" xmlns:xlink="http://www.w3.org/1999/xlink" x="0px" y="0px"
	 viewBox="0 0 512 512" style="enable-background:new 0 0 512 512;" xml:space="preserve">
<g>
	<g>
		<g>
			<path d="M400.173,242.777l55.271-53.876c7.714-7.52,10.439-18.556,7.109-28.803c-3.329-10.246-12.019-17.573-22.682-19.123
				l-119.18-17.318L267.394,15.663C262.626,6.002,252.971,0,242.198,0c-10.775,0-20.429,6.002-25.197,15.662l-53.298,107.994
				l-119.18,17.318c-10.661,1.55-19.353,8.878-22.682,19.124c-3.33,10.246-0.605,21.282,7.109,28.802l86.239,84.062L94.832,391.661
				c-1.82,10.618,2.462,21.149,11.178,27.481c4.926,3.578,10.688,5.396,16.488,5.396c4.465,0,8.954-1.077,13.101-3.258l78.56-41.301
				C217.697,453.376,278.517,512,352.775,512c76.523,0,138.78-62.257,138.78-138.781
				C491.555,313.333,453.427,262.188,400.173,242.777z M215.075,355.89l-89.199,46.893c-3.577,1.88-6.494,0.241-7.582-0.549
				c-1.089-0.791-3.547-3.061-2.864-7.042l21.287-124.112c0.581-3.39-0.543-6.848-3.005-9.248l-90.173-87.897
				c-2.893-2.819-2.238-6.1-1.821-7.38c0.415-1.28,1.814-4.32,5.812-4.901l124.616-18.108c3.404-0.494,6.346-2.632,7.868-5.716
				L235.742,24.91c1.787-3.622,5.111-4.012,6.456-4.012c1.345,0,4.669,0.391,6.455,4.013l55.73,112.921
				c1.522,3.083,4.464,5.221,7.867,5.716l124.617,18.108c3.998,0.581,5.396,3.621,5.813,4.9c0.415,1.28,1.07,4.561-1.822,7.38
				l-64.186,62.566c-7.766-1.353-15.749-2.066-23.896-2.066c-1.333,0-2.662,0.023-3.987,0.061l42.446-41.374
				c2.848-2.776,3.872-6.929,2.644-10.711c-1.23-3.783-4.499-6.539-8.435-7.112l-92.505-13.442l-41.369-83.824
				c-1.761-3.566-5.393-5.824-9.371-5.824c-3.978,0-7.609,2.258-9.371,5.824l-41.37,83.824l-92.506,13.443
				c-3.936,0.572-7.206,3.329-8.434,7.112c-1.229,3.784-0.204,7.935,2.644,10.711l66.938,65.247l-15.802,92.132
				c-0.673,3.919,0.939,7.882,4.158,10.22c1.82,1.323,3.977,1.996,6.143,1.996c1.663,0,3.332-0.396,4.861-1.2l61.74-32.459
				C218.305,337.661,216.233,346.635,215.075,355.89z M178.62,247.24l-55.711-54.303l76.991-11.188
				c3.403-0.494,6.345-2.632,7.867-5.716l34.43-69.764l34.429,69.765c1.522,3.083,4.464,5.221,7.868,5.716l76.989,11.188
				l-48.569,47.342c-31.633,9.502-58.547,30.006-76.279,57.053l-68.164,35.836l13.152-76.679
				C182.206,253.099,181.082,249.641,178.62,247.24z M352.775,491.102c-65.001,0-117.883-52.882-117.883-117.883
				s52.882-117.883,117.883-117.883s117.882,52.882,117.882,117.883S417.776,491.102,352.775,491.102z"/>
			<path d="M436.755,326.719c-4.079-4.079-10.696-4.08-14.778,0l-82.648,82.648l-41.907-41.908c-4.081-4.079-10.696-4.079-14.778,0
				c-4.08,4.08-4.08,10.697,0,14.778l49.296,49.296c2.041,2.041,4.715,3.06,7.388,3.06c2.674,0,5.348-1.02,7.388-3.06l90.037-90.036
				C440.835,337.415,440.835,330.799,436.755,326.719z"/>
		</g>
	</g>
</g>
<g>
</g>
<g>
</g>
<g>
</g>
<g>
</g>
<g>
</g>
<g>
</g>
<g>
</g>
<g>
</g>
<g>
</g>
<g>
</g>
<g>
</g>
<g>
</g>
<g>
</g>
<g>
</g>
<g>
</g>
</svg>
