<?xml version="1.0" encoding="utf-8"?>
<!-- Generator: Adobe Illustrator 21.1.0, SVG Export Plug-In . SVG Version: 6.00 Build 0)  -->
<svg version="1.1" id="Layer_1" xmlns="http://www.w3.org/2000/svg" xmlns:xlink="http://www.w3.org/1999/xlink" x="0px" y="0px"
	 viewBox="0 0 267.5 247.4" style="enable-background:new 0 0 267.5 247.4;" xml:space="preserve">
<style type="text/css">
	.st0{fill:#FFFFFF;stroke:#808080;stroke-miterlimit:10;}
	.st1{fill:#FFFFFF;stroke:#999999;stroke-miterlimit:10;}
	.st2{fill:#FFFFFF;stroke:#808080;stroke-width:0.5;stroke-miterlimit:10;}
	.st3{fill:url(#SVGID_1_);stroke:#808080;stroke-miterlimit:10;}
	.st4{fill:url(#SVGID_2_);stroke:#808080;stroke-miterlimit:10;}
	.st5{fill:none;stroke:#000000;stroke-miterlimit:10;}
	.st6{fill:none;stroke:#000000;stroke-width:0.75;stroke-miterlimit:10;}
	.st7{font-family:'OpenSans';}
	.st8{font-size:12px;}
	.st9{fill:#FFFFFF;stroke:#808080;stroke-width:0.25;stroke-miterlimit:10;}
	.st10{opacity:0.42;}
	.st11{fill:none;stroke:#9E005D;stroke-width:2;stroke-miterlimit:10;}
</style>
<g>
	<rect x="35.2" y="17.2" class="st0" width="68" height="214"/>
	<rect x="35.2" y="17.2" class="st1" width="68" height="214"/>
	<rect x="103.2" y="17.2" class="st1" width="135" height="150"/>
	<rect x="40.2" y="22.2" class="st2" width="58" height="202.9"/>
	<linearGradient id="SVGID_1_" gradientUnits="userSpaceOnUse" x1="170.3727" y1="161.5466" x2="170.3727" y2="22.1573">
		<stop  offset="0" style="stop-color:#BBF1F9"/>
		<stop  offset="1" style="stop-color:#90D8F0"/>
	</linearGradient>
	<rect x="108.2" y="22.2" class="st3" width="124.4" height="139.4"/>
	<rect x="45.2" y="166.9" class="st1" width="48" height="53.1"/>
	<linearGradient id="SVGID_2_" gradientUnits="userSpaceOnUse" x1="69.1879" y1="161.5466" x2="69.1879" y2="26.409">
		<stop  offset="0" style="stop-color:#BBF1F9"/>
		<stop  offset="1" style="stop-color:#90D8F0"/>
	</linearGradient>
	<rect x="45.2" y="26.4" class="st4" width="48" height="135.1"/>
	<line class="st5" x1="17.6" y1="17.2" x2="252.6" y2="17.2"/>
	<line class="st5" x1="102.9" y1="167.2" x2="253.4" y2="167.2"/>
	<line class="st5" x1="17.6" y1="231.2" x2="117.8" y2="231.2"/>
	<line class="st5" x1="35.2" y1="247.4" x2="35.2" y2="0.2"/>
	<line class="st5" x1="238.2" y1="171.9" x2="238.2" y2="0.3"/>
	<line class="st5" x1="103.2" y1="247.4" x2="103.2" y2="0.2"/>
	<g>
		<line class="st6" x1="52.4" y1="6.9" x2="35.2" y2="6.9"/>
	</g>
	<g>
		<line class="st6" x1="190.1" y1="6.9" x2="238.2" y2="7"/>
	</g>
	<text transform="matrix(1 0 0 1 58.6471 10.2832)" class="st7 st8">680</text>
	<g>
		<line class="st6" x1="85" y1="6.8" x2="103.2" y2="6.8"/>
	</g>
	<g>
		<line class="st6" x1="152.9" y1="6.8" x2="103.6" y2="6.8"/>
	</g>
	<text transform="matrix(1 0 0 1 156.6471 10.283)" class="st7 st8">1350</text>
	<g>
		<line class="st6" x1="247.6" y1="79.5" x2="247.6" y2="17.2"/>
	</g>
	<g>
		<line class="st6" x1="247.6" y1="95.8" x2="248.4" y2="167.2"/>
	</g>
	<text transform="matrix(1 0 0 1 240.0973 91.9495)" class="st7 st8">1530</text>
	<g>
		<line class="st6" x1="23.1" y1="101.1" x2="23.1" y2="17.2"/>
	</g>
	<g>
		<line class="st6" x1="23.2" y1="120.1" x2="23.2" y2="231.2"/>
	</g>
	<text transform="matrix(1 0 0 1 -9.155273e-05 113.9495)" class="st7 st8">2100</text>
	<rect x="98.2" y="22.3" class="st9" width="1.4" height="10"/>
	<rect x="98.2" y="215.1" class="st9" width="1.4" height="10"/>
	<path class="st9" d="M42.9,122.9h-0.5c-0.6,0-1-0.5-1-1V117c0-0.6,0.5-1,1-1h0.5c0.6,0,1,0.5,1,1v4.9
		C43.9,122.4,43.5,122.9,42.9,122.9z"/>
	<path class="st9" d="M42.7,130.5L42.7,130.5c-0.4,0-0.7-0.3-0.7-0.7v-11.4c0-0.4,0.3-0.7,0.7-0.7h0c0.4,0,0.7,0.3,0.7,0.7v11.4
		C43.4,130.2,43.1,130.5,42.7,130.5z"/>
	<g>
		<path d="M237.9,6.8l-3.3-3.3c0,0-0.1-0.1-0.2-0.1c-0.1,0-0.1,0-0.2,0.1l-0.4,0.4c0,0-0.1,0.1-0.1,0.2c0,0.1,0,0.1,0.1,0.2l2.8,2.8
			l-2.8,2.8c0,0-0.1,0.1-0.1,0.2c0,0.1,0,0.1,0.1,0.2l0.4,0.4c0,0,0.1,0.1,0.2,0.1c0.1,0,0.1,0,0.2-0.1l3.3-3.3c0,0,0.1-0.1,0.1-0.2
			S238,6.9,237.9,6.8z"/>
	</g>
	<g>
		<path d="M103.4,7l3.3,3.3c0,0,0.1,0.1,0.2,0.1c0.1,0,0.1,0,0.2-0.1l0.4-0.4c0,0,0.1-0.1,0.1-0.2c0-0.1,0-0.1-0.1-0.2l-2.8-2.8
			l2.8-2.8c0,0,0.1-0.1,0.1-0.2c0-0.1,0-0.1-0.1-0.2l-0.4-0.4c0,0-0.1-0.1-0.2-0.1c-0.1,0-0.1,0-0.2,0.1l-3.3,3.3
			c0,0-0.1,0.1-0.1,0.2C103.4,6.9,103.4,7,103.4,7z"/>
	</g>
	<g class="st10">
		<line class="st11" x1="40.8" y1="22.3" x2="96.7" y2="123.3"/>
		<line class="st11" x1="40.2" y1="224.6" x2="96.6" y2="122.1"/>
		<line class="st11" x1="40.6" y1="225.2" x2="69.4" y2="22.3"/>
		<line class="st11" x1="98.2" y1="225.2" x2="69.4" y2="22.3"/>
	</g>
	<g>
		<path d="M247.4,17.5l-3.3,3.3c0,0-0.1,0.1-0.1,0.2c0,0.1,0,0.1,0.1,0.2l0.4,0.4c0,0,0.1,0.1,0.2,0.1c0.1,0,0.1,0,0.2-0.1l2.8-2.8
			l2.8,2.8c0,0,0.1,0.1,0.2,0.1c0.1,0,0.1,0,0.2-0.1l0.4-0.4c0,0,0.1-0.1,0.1-0.2c0-0.1,0-0.1-0.1-0.2l-3.3-3.3c0,0-0.1-0.1-0.2-0.1
			S247.4,17.4,247.4,17.5z"/>
	</g>
	<g>
		<path d="M248.6,166.9l3.3-3.3c0,0,0.1-0.1,0.1-0.2c0-0.1,0-0.1-0.1-0.2l-0.4-0.4c0,0-0.1-0.1-0.2-0.1c-0.1,0-0.1,0-0.2,0.1
			l-2.8,2.8l-2.8-2.8c0,0-0.1-0.1-0.2-0.1c-0.1,0-0.1,0-0.2,0.1l-0.4,0.4c0,0-0.1,0.1-0.1,0.2c0,0.1,0,0.1,0.1,0.2l3.3,3.3
			c0,0,0.1,0.1,0.2,0.1S248.5,166.9,248.6,166.9z"/>
	</g>
	<g>
		<path d="M35.5,7l3.3,3.3c0,0,0.1,0.1,0.2,0.1c0.1,0,0.1,0,0.2-0.1l0.4-0.4c0,0,0.1-0.1,0.1-0.2s0-0.1-0.1-0.2l-2.8-2.8L39.5,4
			c0,0,0.1-0.1,0.1-0.2c0-0.1,0-0.1-0.1-0.2l-0.4-0.4c0,0-0.1-0.1-0.2-0.1c-0.1,0-0.1,0-0.2,0.1l-3.3,3.3c0,0-0.1,0.1-0.1,0.2
			S35.4,7,35.5,7z"/>
	</g>
	<g>
		<path d="M102.9,6.7l-3.3-3.3c0,0-0.1-0.1-0.2-0.1c-0.1,0-0.1,0-0.2,0.1l-0.4,0.4c0,0-0.1,0.1-0.1,0.2c0,0.1,0,0.1,0.1,0.2l2.8,2.8
			l-2.8,2.8c0,0-0.1,0.1-0.1,0.2c0,0.1,0,0.1,0.1,0.2l0.4,0.4c0,0,0.1,0.1,0.2,0.1c0.1,0,0.1,0,0.2-0.1l3.3-3.3c0,0,0.1-0.1,0.1-0.2
			C103,6.8,103,6.7,102.9,6.7z"/>
	</g>
	<g>
		<path d="M23,17.5l-3.3,3.3c0,0-0.1,0.1-0.1,0.2c0,0.1,0,0.1,0.1,0.2l0.4,0.4c0,0,0.1,0.1,0.2,0.1s0.1,0,0.2-0.1l2.8-2.8l2.8,2.8
			c0,0,0.1,0.1,0.2,0.1c0.1,0,0.1,0,0.2-0.1l0.4-0.4c0,0,0.1-0.1,0.1-0.2c0-0.1,0-0.1-0.1-0.2l-3.3-3.3c0,0-0.1-0.1-0.2-0.1
			C23.1,17.5,23,17.5,23,17.5z"/>
	</g>
	<g>
		<path d="M23.3,230.8l3.3-3.3c0,0,0.1-0.1,0.1-0.2c0-0.1,0-0.1-0.1-0.2l-0.4-0.4c0,0-0.1-0.1-0.2-0.1s-0.1,0-0.2,0.1l-2.8,2.8
			l-2.8-2.8c0,0-0.1-0.1-0.2-0.1c-0.1,0-0.1,0-0.2,0.1l-0.4,0.4c0,0-0.1,0.1-0.1,0.2c0,0.1,0,0.1,0.1,0.2l3.3,3.3
			c0,0,0.1,0.1,0.2,0.1S23.3,230.9,23.3,230.8z"/>
	</g>
</g>
</svg>
