<?xml version="1.0" encoding="utf-8"?>
<!-- Generator: Adobe Illustrator 21.1.0, SVG Export Plug-In . SVG Version: 6.00 Build 0)  -->
<svg version="1.1" id="Layer_1" xmlns="http://www.w3.org/2000/svg" xmlns:xlink="http://www.w3.org/1999/xlink" x="0px" y="0px"
	 viewBox="0 0 229.7 148" style="enable-background:new 0 0 229.7 148;" xml:space="preserve">
<style type="text/css">
	.st0{fill:none;stroke:#000000;stroke-width:0.75;stroke-miterlimit:10;}
	.st1{font-family:'OpenSans';}
	.st2{font-size:12px;}
	.st3{fill:#FFFFFF;stroke:#999999;stroke-miterlimit:10;}
	.st4{fill:#FFFFFF;stroke:#808080;stroke-width:0.5;stroke-miterlimit:10;}
	.st5{fill:url(#SVGID_1_);stroke:#808080;stroke-miterlimit:10;}
	.st6{fill:#FFFFFF;stroke:#808080;stroke-width:0.25;stroke-miterlimit:10;}
	.st7{opacity:0.42;}
	.st8{fill:none;stroke:#9E005D;stroke-width:2;stroke-miterlimit:10;}
	.st9{fill:url(#SVGID_2_);stroke:#808080;stroke-miterlimit:10;}
	.st10{fill:url(#SVGID_3_);stroke:#808080;stroke-miterlimit:10;}
	.st11{fill:none;stroke:#000000;stroke-miterlimit:10;}
</style>
<g>
	<g>
		<line class="st0" x1="209.7" y1="66.1" x2="209.7" y2="14.8"/>
	</g>
	<g>
		<line class="st0" x1="209.7" y1="88.6" x2="209.7" y2="147.5"/>
	</g>
	<text transform="matrix(1 0 0 1 202.2662 81.313)" class="st1 st2">1530</text>
	<g>
		<path d="M209.6,13.9l-3.3,3.3c0,0-0.1,0.1-0.1,0.2c0,0.1,0,0.1,0.1,0.2l0.4,0.4c0,0,0.1,0.1,0.2,0.1c0.1,0,0.1,0,0.2-0.1l2.8-2.8
			l2.8,2.8c0,0,0.1,0.1,0.2,0.1c0.1,0,0.1,0,0.2-0.1l0.4-0.4c0,0,0.1-0.1,0.1-0.2c0-0.1,0-0.1-0.1-0.2l-3.3-3.3c0,0-0.1-0.1-0.2-0.1
			S209.6,13.9,209.6,13.9z"/>
	</g>
	<g>
		<path d="M209.9,147.2l3.3-3.3c0,0,0.1-0.1,0.1-0.2c0-0.1,0-0.1-0.1-0.2l-0.4-0.4c0,0-0.1-0.1-0.2-0.1c-0.1,0-0.1,0-0.2,0.1
			l-2.8,2.8l-2.8-2.8c0,0-0.1-0.1-0.2-0.1c-0.1,0-0.1,0-0.2,0.1l-0.4,0.4c0,0-0.1,0.1-0.1,0.2c0,0.1,0,0.1,0.1,0.2l3.3,3.3
			c0,0,0.1,0.1,0.2,0.1S209.8,147.3,209.9,147.2z"/>
	</g>
	<rect x="0.5" y="13.5" class="st3" width="200" height="134"/>
	<rect x="66" y="18.9" class="st4" width="69.8" height="123.4"/>
	<linearGradient id="SVGID_1_" gradientUnits="userSpaceOnUse" x1="100.921" y1="137.1843" x2="100.921" y2="24.2417">
		<stop  offset="0" style="stop-color:#BBF1F9"/>
		<stop  offset="1" style="stop-color:#90D8F0"/>
	</linearGradient>
	<rect x="71.6" y="24.2" class="st5" width="58.6" height="112.9"/>
	<rect x="135.8" y="18.9" class="st6" width="1.4" height="10.4"/>
	<rect x="135.8" y="132" class="st6" width="1.4" height="10.4"/>
	<path class="st6" d="M69,85.8h-0.4c-0.6,0-1-0.5-1-1v-5.2c0-0.6,0.5-1,1-1H69c0.6,0,1,0.5,1,1v5.2C70,85.3,69.5,85.8,69,85.8z"/>
	<path class="st6" d="M68.8,93.8L68.8,93.8c-0.4,0-0.7-0.3-0.7-0.7v-12c0-0.4,0.3-0.7,0.7-0.7l0,0c0.4,0,0.7,0.3,0.7,0.7v12
		C69.5,93.5,69.1,93.8,68.8,93.8z"/>
	<g class="st7">
		<line class="st8" x1="135.1" y1="18.9" x2="66.9" y2="80.6"/>
		<line class="st8" x1="135.8" y1="141.9" x2="66.4" y2="80.2"/>
		<line class="st8" x1="135.4" y1="142.2" x2="101.1" y2="18.9"/>
		<line class="st8" x1="66.7" y1="142.2" x2="101.1" y2="18.9"/>
	</g>
	<linearGradient id="SVGID_2_" gradientUnits="userSpaceOnUse" x1="167.2279" y1="142.3093" x2="167.2279" y2="18.8967">
		<stop  offset="0" style="stop-color:#BBF1F9"/>
		<stop  offset="1" style="stop-color:#90D8F0"/>
	</linearGradient>
	<rect x="140.3" y="18.9" class="st9" width="53.8" height="123.4"/>
	<linearGradient id="SVGID_3_" gradientUnits="userSpaceOnUse" x1="34.3066" y1="142.3093" x2="34.3066" y2="18.8967">
		<stop  offset="0" style="stop-color:#BBF1F9"/>
		<stop  offset="1" style="stop-color:#90D8F0"/>
	</linearGradient>
	<rect x="6.8" y="18.9" class="st10" width="55.1" height="123.4"/>
	<line class="st11" x1="0.8" y1="13.5" x2="215.2" y2="13.5"/>
	<line class="st11" x1="200.5" y1="147.5" x2="200.5" y2="0.4"/>
	<line class="st11" x1="0.5" y1="147.5" x2="0.5" y2="0"/>
	<line class="st11" x1="200.5" y1="147.5" x2="215" y2="147.5"/>
	<g>
		<line class="st0" x1="120.8" y1="7.3" x2="200.3" y2="7.3"/>
	</g>
	<g>
		<line class="st0" x1="78.6" y1="7.2" x2="0.9" y2="7.2"/>
	</g>
	<text transform="matrix(1 0 0 1 85.7406 10.6875)" class="st1 st2">2000</text>
	<g>
		<path d="M200.3,7.1l-3.3-3.3c0,0-0.1-0.1-0.2-0.1s-0.1,0-0.2,0.1l-0.4,0.4c0,0-0.1,0.1-0.1,0.2s0,0.1,0.1,0.2l2.8,2.8l-2.8,2.8
			c0,0-0.1,0.1-0.1,0.2c0,0.1,0,0.1,0.1,0.2l0.4,0.4c0,0,0.1,0.1,0.2,0.1c0.1,0,0.1,0,0.2-0.1l3.3-3.3c0,0,0.1-0.1,0.1-0.2
			S200.3,7.1,200.3,7.1z"/>
	</g>
	<g>
		<path d="M0.7,7.4l3.3,3.3c0,0,0.1,0.1,0.2,0.1c0.1,0,0.1,0,0.2-0.1l0.4-0.4c0,0,0.1-0.1,0.1-0.2s0-0.1-0.1-0.2L2,7.2l2.8-2.8
			c0,0,0.1-0.1,0.1-0.2c0-0.1,0-0.1-0.1-0.2L4.4,3.7c0,0-0.1-0.1-0.2-0.1c-0.1,0-0.1,0-0.2,0.1L0.7,7.1c0,0-0.1,0.1-0.1,0.2
			C0.7,7.3,0.7,7.3,0.7,7.4z"/>
	</g>
</g>
</svg>
